<svg width="173" height="29" viewBox="0 0 173 29" fill="none" xmlns="http://www.w3.org/2000/svg">
<path d="M165.019 22.5916C162.971 26.9116 160.923 28.7996 155.803 28.7996C154.267 28.7996 152.507 28.5116 151.483 28.0956L152.475 22.8476C153.179 23.1996 154.043 23.4556 154.811 23.4556C155.803 23.4556 156.507 23.2636 156.795 22.6236L156.923 22.3356L149.147 6.01562H157.115L161.275 15.7116L165.499 6.01562H172.891L165.019 22.5916Z" fill="#1A1309"/>
<path d="M136.11 23.3278C131.47 23.3278 128.686 21.2798 128.686 18.1438C128.686 14.2718 132.334 12.7998 136.238 12.6398L142.094 12.3838V12.3198C142.094 11.5838 141.486 10.8158 139.374 10.8158C137.518 10.8158 136.558 11.4238 136.238 12.2238L129.422 11.2958C130.51 7.83984 134.254 5.63184 139.726 5.63184C145.422 5.63184 148.942 7.77584 148.942 12.3198V17.0558C148.942 17.8558 149.198 18.2718 150.606 17.9838V22.9758C146.638 23.6478 143.982 23.1678 142.67 21.6958C141.102 22.7838 138.83 23.3278 136.11 23.3278ZM142.094 16.5438V16.4478L137.102 16.7358C136.11 16.7998 135.566 16.9918 135.566 17.6318C135.566 18.2718 136.334 18.6238 137.998 18.6238C140.206 18.6238 142.094 17.7598 142.094 16.5438Z" fill="#1A1309"/>
<path d="M126.927 0V22.976H119.823V0H126.927Z" fill="#1A1309"/>
<path d="M103.545 21.3758V28.4158H96.4407V6.01584H103.545V7.61584C104.537 6.49584 106.553 5.63184 109.017 5.63184C114.681 5.63184 117.945 9.59984 117.945 14.4958C117.945 19.3918 114.681 23.3598 109.017 23.3598C106.553 23.3598 104.537 22.4958 103.545 21.3758ZM103.385 14.4318V14.5598C103.385 16.5438 105.049 17.7918 107.129 17.7918C109.177 17.7918 110.905 16.6398 110.905 14.4958C110.905 12.3518 109.177 11.1998 107.129 11.1998C105.049 11.1998 103.385 12.4478 103.385 14.4318Z" fill="#1A1309"/>
<path d="M94.6249 6.01592V12.7359C93.8569 12.6399 93.4089 12.6079 92.4809 12.6079C89.3129 12.6079 86.8809 13.6639 86.8809 17.0559V22.9759H79.7769V6.01592H86.8809V8.73592C88.3529 6.78392 90.0169 5.91992 92.8009 5.91992C93.5689 5.91992 94.0489 5.95192 94.6249 6.01592Z" fill="#1A1309"/>
<path d="M67.0675 5.63184C73.2755 5.63184 77.8834 9.02384 77.8834 14.4958C77.8834 19.9678 73.2755 23.3598 67.0675 23.3598C60.8915 23.3598 56.2834 19.9678 56.2834 14.4958C56.2834 9.02384 60.8915 5.63184 67.0675 5.63184ZM67.0675 17.7918C69.1155 17.7918 70.8434 16.6718 70.8434 14.4958C70.8434 12.3518 69.1155 11.1998 67.0675 11.1998C65.0195 11.1998 63.3234 12.3518 63.3234 14.4958C63.3234 16.6718 65.0195 17.7918 67.0675 17.7918Z" fill="#1A1309"/>
<path d="M44.1536 5.63184C50.3616 5.63184 54.9696 9.02384 54.9696 14.4958C54.9696 19.9678 50.3616 23.3598 44.1536 23.3598C37.9776 23.3598 33.3696 19.9678 33.3696 14.4958C33.3696 9.02384 37.9776 5.63184 44.1536 5.63184ZM44.1536 17.7918C46.2016 17.7918 47.9296 16.6718 47.9296 14.4958C47.9296 12.3518 46.2016 11.1998 44.1536 11.1998C42.1056 11.1998 40.4096 12.3518 40.4096 14.4958C40.4096 16.6718 42.1056 17.7918 44.1536 17.7918Z" fill="#1A1309"/>
<path d="M31.4834 0V22.976H24.3794V0H31.4834Z" fill="#1A1309"/>
<path d="M7.136 22.976H0V0H22.4V6.08H7.136V9.728H20.576V15.648H7.136V22.976Z" fill="#1A1309"/>
</svg>
