<svg preserveAspectRatio="none" width="100%" height="100%" overflow="visible" style="display: block;" viewBox="0 0 446 315" fill="none" xmlns="http://www.w3.org/2000/svg">
<path id="Vector" d="M20.8738 221.122C20.6899 220.53 20.6899 220.085 20.506 219.641C7.81568 188.392 11.678 157.882 27.4949 128.114C39.4495 105.75 57.2896 86.7932 79.5436 70.5019C119.27 41.0295 165.985 22.5166 219.321 15.7039C258.312 10.6684 296.934 12.1495 334.821 21.9242C356.708 27.5521 376.755 35.6978 394.227 47.6941C412.067 59.8385 424.941 74.6487 432.114 92.7173C433.034 94.7907 434.137 96.8641 435.241 98.9376C444.988 117.598 447.931 137 444.804 156.994C440.574 183.652 427.332 207.201 406.549 228.083C404.894 229.86 403.055 231.637 401.584 233.563C369.766 272.958 325.442 298.432 268.979 309.243C202.769 321.832 140.236 313.834 82.3024 284.658C57.8413 272.366 37.0586 256.667 21.9773 236.525C-4.13897 201.721 -6.5299 165.584 12.4136 128.262C24.3683 104.565 42.7601 84.5716 65.5659 66.9474C101.982 38.956 145.202 20.147 193.389 9.03931C219.873 2.9671 246.541 -0.14305 273.761 0.00505243C290.497 0.00505243 307.234 1.18987 323.419 5.48485C332.063 7.70639 340.155 10.8165 346.96 15.5558C349.351 17.185 351.374 19.1103 353.397 20.8875C354.501 21.9242 355.42 23.2572 353.765 25.0344C353.029 24.7382 352.11 24.5901 351.558 24.1458C342.178 14.5191 329.12 9.92792 314.958 6.81777C298.774 3.41141 282.221 2.6709 265.484 3.41141C197.251 6.52157 136.374 25.4787 83.4059 60.4309C57.1056 77.907 36.139 98.9376 21.7934 123.967C10.9423 143.072 5.79259 162.918 7.81568 183.8C8.91919 196.241 12.9654 208.089 19.2186 219.345C19.4025 219.789 19.7703 220.234 20.1382 220.53C20.1382 220.826 20.506 220.826 20.8738 221.122ZM437.264 160.844C435.057 163.214 434.689 165.88 435.424 168.546C435.057 168.99 434.321 169.286 434.137 169.731C433.401 171.656 433.034 173.729 432.482 175.803C432.666 175.803 432.85 175.803 433.034 175.951C433.769 173.433 434.505 171.064 435.424 168.546C435.976 166.028 436.528 163.362 437.264 160.844C437.264 159.363 437.448 158.03 437.631 156.698C437.264 156.698 437.08 156.698 436.712 156.698C436.896 158.179 437.08 159.512 437.264 160.844ZM268.611 24.442C231.828 24.5901 198.906 30.3661 167.456 41.1776C137.11 51.5447 110.258 65.9107 88.0038 85.6083C72.5547 99.3819 60.4162 114.785 53.0595 132.409C46.8062 147.367 44.5992 162.622 47.7258 178.321C51.0364 195.204 60.784 209.57 75.4974 221.863C101.798 243.782 131.041 262.739 163.226 278.734C179.043 286.435 195.412 293.1 213.068 297.395C217.114 298.284 220.976 299.024 225.206 298.728C249.668 297.099 273.393 292.804 296.383 285.695C333.718 274.143 366.455 256.963 393.491 232.97C395.882 230.897 397.905 228.527 399.744 226.158C407.101 216.087 412.987 205.571 417.768 194.612C429.171 168.398 434.321 141.591 430.643 113.896C429.539 104.862 426.412 96.5679 420.343 88.8666C408.389 73.4639 393.123 60.7271 374.364 50.508C341.626 32.4395 305.211 24.442 268.611 24.442ZM180.147 30.218C180.147 30.0699 179.963 29.7737 179.963 29.6256C178.491 29.9218 177.02 30.3661 175.549 30.6623C158.812 35.4016 142.995 41.3257 127.73 48.7308C94.441 65.0221 66.6694 85.7564 46.2545 112.415C30.6215 132.853 21.2417 154.92 20.506 179.061C19.5864 207.052 29.8858 231.786 53.4273 252.668C65.5659 263.331 80.0954 271.625 95.9123 278.29C126.443 291.175 158.996 297.395 193.205 298.876C196.883 299.024 200.378 298.876 204.056 298.876C203.32 298.136 202.401 297.839 201.481 297.543C193.94 295.173 186.216 293.1 179.043 290.434C134.351 273.254 96.648 248.669 63.1749 219.493C57.6574 214.754 53.6112 209.126 49.9328 203.202C38.1621 183.504 36.6908 162.918 42.5761 141.887C49.0133 118.635 63.1749 98.6414 82.8541 81.1653C107.683 58.8018 138.213 43.251 172.79 32.4395C175.365 31.699 177.756 30.9585 180.147 30.218ZM366.271 261.554C366.087 261.258 365.72 260.962 365.536 260.666C328.936 282.733 288.106 296.803 242.863 301.986C197.803 307.17 153.846 303.763 110.994 290.878C119.822 294.877 129.017 297.839 138.581 300.505C174.445 310.28 211.229 312.353 248.748 307.91C285.164 303.615 318.085 292.804 347.328 274.587C353.765 270.44 359.834 265.849 366.271 261.554ZM438.183 151.81C437.999 151.81 437.999 151.81 438.183 151.81C437.999 152.403 437.999 152.847 437.999 153.439H438.183C438.183 152.995 438.183 152.403 438.183 151.81Z" fill="var(--fill-0, black)"/>
</svg>
